# xmcd
#
# Track frame offsets:
# 150
# 14687
# 27235
# 43060
# 60590
# 75962
# 93767
# 108385
# 125005
# 138565
# 149562
# 164997
# 177435
# 187835
# 200075
# 216800
# 229610
#
# Disc length: 3198 seconds
#
# Revision: 0
# Processed by: cddbd v1.5.1PL0 Copyright (c) Steve Scherf et al.
# Submitted via: MacMP3 Pro 5.0 (http://mp3.act2.co.jp/)
#
DISCID=f60c7c11
DTITLE=ÍOEÂ•ÛTÈ¸ÚY - The Legendary Covers ÷?
DYEAR=1900
DGENRE=
TTITLE0=77
TTITLE1=78
TTITLE2=79
TTITLE3=80
TTITLE4=81
TTITLE5=82
TTITLE6=83
TTITLE7=84
TTITLE8=85
TTITLE9=86
TTITLE10=87
TTITLE11=88
TTITLE12=89
TTITLE13=90
TTITLE14=91
TTITLE15=92
TTITLE16=93
EXTD=
EXTT0=
EXTT1=
EXTT2=
EXTT3=
EXTT4=
EXTT5=
EXTT6=
EXTT7=
EXTT8=
EXTT9=
EXTT10=
EXTT11=
EXTT12=
EXTT13=
EXTT14=
EXTT15=
EXTT16=
PLAYORDER=
